<svg xmlns="http://www.w3.org/2000/svg" version="1.1" xmlns:xlink="http://www.w3.org/1999/xlink" xmlns:svgjs="http://svgjs.dev/svgjs" width="128" height="128" viewBox="0 0 128 128"><g transform="matrix(0.8046875,0,0,0.8046875,12.760752631578946,24.505250434074128)"><svg viewBox="0 0 95 73" data-background-color="#ffffff" preserveAspectRatio="xMidYMid meet" height="98" width="128" xmlns="http://www.w3.org/2000/svg" xmlns:xlink="http://www.w3.org/1999/xlink"><g id="tight-bounds" transform="matrix(1,0,0,1,-0.24049999999999727,0.06022785258682006)"><svg viewBox="0 0 95.481 72.87954429482636" height="72.87954429482636" width="95.481"><g><svg viewBox="0 0 95.481 72.87954429482636" height="72.87954429482636" width="95.481"><g><svg viewBox="0 0 95.481 72.87954429482636" height="72.87954429482636" width="95.481"><g id="textblocktransform"><svg viewBox="0 0 95.481 72.87954429482636" height="72.87954429482636" width="95.481" id="textblock"><g><svg viewBox="0 0 95.481 72.87954429482636" height="72.87954429482636" width="95.481"><g><svg viewBox="0 0 95.481 72.87954429482636" height="72.87954429482636" width="95.481"><g><svg xmlns="http://www.w3.org/2000/svg" xmlns:xlink="http://www.w3.org/1999/xlink" version="1.1" x="0" y="0" viewBox="1.32 12.844 97.359 74.313" enable-background="new 0 0 100 100" xml:space="preserve" height="72.87954429482636" width="95.481" class="icon-icon-0" data-fill-palette-color="accent" id="icon-0"><path fill="#0d6efd" d="M49.951 87.075c0.212-0.248 0.117-0.575-0.033-0.841C50.075 86.505 50.178 86.833 49.951 87.075z" data-fill-palette-color="accent"></path><path fill="#0d6efd" d="M64.521 86.734c-0.15 0.17-0.451 0.289-0.98 0.33-0.09 0.01-0.221 0.01-0.38 0.021-0.41 0.011-1.04 0.021-1.841 0.04-0.439 0-0.92 0-1.449 0.011-0.811 0-1.92 0-3.229 0.01-1.933 0.011-4.07 0.011-6.19 0.011-3.66 0-7.23-0.011-9.46-0.021-0.62 0-1.13-0.011-1.52-0.011-1.29-0.012-2.27-0.029-2.77-0.051-0.07 0-0.15 0-0.23-0.01-0.09-0.011-0.17-0.021-0.24-0.031-1.73-0.238-0.36-1.618-0.36-1.618s2.1-1.642 3.14-3.279c0 0 0.31-0.011 0.6-2.54 0.4-3.58 0.75-6.359 0.75-6.359h19.291c0 0 0.341 2.779 0.75 6.359 0.279 2.529 0.591 2.54 0.591 2.54 0.979 1.54 2.88 3.08 3.118 3.271 0.012 0 0.021 0.011 0.021 0.011s0.07 0.069 0.16 0.188C64.51 85.873 64.819 86.384 64.521 86.734z" data-fill-palette-color="accent"></path><path fill="#0d6efd" d="M49.901 85.83c0.064 0.078 0.135 0.179 0.197 0.289C50.036 86.011 49.965 85.91 49.901 85.83z" data-fill-palette-color="accent"></path><path fill="#0d6efd" d="M50.129 71.937c-3.169 0.013-44.547 0.144-46.563 0C1.471 71.79 1.32 69.691 1.32 69.691V14.744c0-1.797 2.245-1.9 2.245-1.9h46.116 0.639 46.113c0 0 2.246 0.103 2.246 1.9v54.948c0 0-0.15 2.099-2.246 2.245C94.463 72.078 54.797 71.951 50.129 71.937M94.898 16.541H5.213v50.756h89.686V16.541L94.898 16.541z" data-fill-palette-color="accent"></path></svg></g></svg></g></svg></g></svg></g></svg></g><g></g></svg></g><defs></defs></svg><rect width="95.481" height="72.87954429482636" fill="none" stroke="none" visibility="hidden"></rect></g></svg></g></svg>