<svg xmlns="http://www.w3.org/2000/svg" version="1.1" xmlns:xlink="http://www.w3.org/1999/xlink" xmlns:svgjs="http://svgjs.dev/svgjs" width="1500" height="1500" viewBox="0 0 1500 1500"><rect width="1500" height="1500" fill="#ffffff"></rect><g transform="matrix(0.6666666666666666,0,0,0.6666666666666666,249.40202960010635,222.76059379217287)"><svg viewBox="0 0 234 247" data-background-color="#ffffff" preserveAspectRatio="xMidYMid meet" height="1583" width="1500" xmlns="http://www.w3.org/2000/svg" xmlns:xlink="http://www.w3.org/1999/xlink"><g id="tight-bounds" transform="matrix(1,0,0,1,0.13992507357511386,-0.09999999999999432)"><svg viewBox="0 0 233.7201498528498 247.2" height="247.2" width="233.7201498528498"><g><svg viewBox="0 0 397.4975999999999 420.4233429674992" height="247.2" width="233.7201498528498"><g><rect width="397.4975999999999" height="8.489414054303065" x="0" y="208.79523039554888" fill="#0d6efd" opacity="1" stroke-width="0" stroke="transparent" fill-opacity="1" class="rect-qz-0" data-fill-palette-color="primary" rx="1%" id="qz-0" data-palette-color="#0d6efd"></rect></g><g><rect width="397.4975999999999" height="8.489414054303065" x="0" y="228.39644295024863" fill="#0d6efd" opacity="1" stroke-width="0" stroke="transparent" fill-opacity="1" class="rect-qz-1" data-fill-palette-color="primary" rx="1%" id="qz-1" data-palette-color="#0d6efd"></rect></g><g transform="matrix(1,0,0,1,0.9887999999999693,259.10945400534507)"><svg viewBox="0 0 395.52 161.31388896215418" height="161.31388896215418" width="395.52"><g id="textblocktransform"><svg viewBox="0 0 395.52 161.31388896215418" height="161.31388896215418" width="395.52" id="textblock"><g><svg viewBox="0 0 395.52 94.13746844572665" height="94.13746844572665" width="395.52"><g transform="matrix(1,0,0,1,0,0)"><svg width="395.52" viewBox="1.71 -31.74 135.39 32.23" height="94.13746844572665" data-palette-color="#0d6efd"><path d="M7.18 0L20.61 0Q20.61-1.07 19.82-1.22L19.82-1.22Q19.58-1.27 19.34-1.27L19.34-1.27 16.02-1.27 16.02-28.03 18.85-28.03Q22.8-28.03 24.12-23.24L24.12-23.24Q24.12-23.05 24.17-22.95L24.17-22.95 24.95-19.68 26.32-19.68 26.07-29.3 1.95-29.3 1.71-19.68 3.08-19.68 3.86-22.95Q5.42-27.73 9.18-28.03L9.18-28.03 11.82-28.03 11.82-1.27 7.18-1.27 7.18 0ZM47.12 0.49L47.12 0.49Q50.88 0.49 51.27-4.05L51.27-4.05Q51.32-4.35 51.32-4.59L51.32-4.59 50.05-4.64Q49.7-1.07 48.14-1.03L48.14-1.03Q46.87-1.12 46.82-3.56L46.82-3.56 46.82-13.87Q46.82-20.85 39.84-21.24L39.84-21.24Q39.4-21.24 38.96-21.24L38.96-21.24Q33.49-21.24 31.64-18.7L31.64-18.7Q31.05-17.87 31.05-17.04L31.05-17.04Q31.05-15.53 32.47-15.28L32.47-15.28Q32.71-15.23 32.96-15.23L32.96-15.23Q34.08-15.23 34.62-16.65L34.62-16.65Q35.3-18.46 35.54-18.8L35.54-18.8Q36.47-20.02 38.43-20.02L38.43-20.02Q43.02-19.73 43.16-14.99L43.16-14.99 43.16-11.91Q31.69-11.91 30.03-7.13L30.03-7.13Q29.73-6.2 29.73-5.13L29.73-5.13Q29.73-1.42 33.01-0.05L33.01-0.05Q34.32 0.49 35.79 0.49L35.79 0.49Q39.35 0.49 41.79-1.95L41.79-1.95Q42.67-2.88 43.11-3.91L43.11-3.91Q43.7 0.44 47.12 0.49ZM37.4-1.46L37.4-1.46Q34.42-1.46 33.74-4.44L33.74-4.44Q33.59-5.13 33.59-5.96L33.59-5.96Q33.59-9.23 37.35-10.11L37.35-10.11Q39.35-10.55 43.16-10.6L43.16-10.6 43.16-6.69Q42.43-3.32 39.6-1.95L39.6-1.95Q38.47-1.46 37.4-1.46ZM60.83-0.83L60.83-0.83Q64.2-0.83 65.38-2.88L65.38-2.88Q65.82-3.61 65.82-4.49L65.82-4.49Q65.82-6.54 62.84-8.01L62.84-8.01Q62.2-8.35 60.74-8.98L60.74-8.98Q56.73-10.64 55.41-12.11L55.41-12.11Q54-13.72 54-15.87L54-15.87Q54-19.24 57.71-20.61L57.71-20.61Q59.42-21.24 61.42-21.24L61.42-21.24Q64.64-21.24 66.99-19.87L66.99-19.87Q66.99-21.29 67.67-21.48L67.67-21.48Q67.96-21.53 68.31-21.53L68.31-21.53 68.31-15.43 67.04-15.43Q66.94-19.92 62.06-19.97L62.06-19.97Q58.39-19.97 57.51-17.82L57.51-17.82Q57.27-17.24 57.27-16.6L57.27-16.6Q57.27-14.5 60.3-13.04L60.3-13.04Q60.98-12.7 62.45-12.11L62.45-12.11Q66.4-10.5 67.72-9.03L67.72-9.03Q69.14-7.47 69.14-5.32L69.14-5.32Q69.14-1.37 64.94-0.05L64.94-0.05Q63.33 0.49 61.42 0.49L61.42 0.49Q57.91 0.44 55.32-1.27L55.32-1.27Q55.32 0 54.68 0.2L54.68 0.2Q54.39 0.24 54 0.24L54 0.24 54-7.18 55.37-7.18Q55.46-0.88 60.83-0.83ZM82.12-1.22L82.12-1.22 79.92-1.22 79.92-8.45 82.61-10.94 89.49 0 95.99 0Q95.99-1.07 95.26-1.17L95.26-1.17Q95.06-1.22 94.77-1.22L94.77-1.22 93.01-1.22 85.15-13.33 89.74-17.63Q91.45-19.24 92.33-19.43L92.33-19.43Q92.72-19.53 93.21-19.53L93.21-19.53Q94.28-19.53 94.38-20.26L94.38-20.26Q94.43-20.51 94.43-20.75L94.43-20.75 86.13-20.75 86.13-19.53 89.79-19.53 79.92-10.4 79.92-31.74 72.6-31.74 72.6-30.52 76.26-30.52 76.26-4.15Q76.26-1.9 74.99-1.46L74.99-1.46Q74.26-1.22 72.6-1.22L72.6-1.22 72.6 0 83.34 0Q83.34-1.07 82.61-1.17L82.61-1.17Q82.41-1.22 82.12-1.22ZM107.66-20.02L107.66-20.02Q111.07-20.02 112.2-17.14L112.2-17.14Q112.59-16.21 112.59-15.14L112.59-15.14Q112.59-12.7 110.24-12.16L110.24-12.16Q109.02-11.91 106.78-11.96L106.78-11.96 101.6-12.11Q101.85-17.72 105.26-19.43L105.26-19.43Q106.39-20.02 107.66-20.02ZM116.15-4.69L116.15-4.69 114.93-5.13Q113.22-1.42 109.41-0.93L109.41-0.93Q108.93-0.88 108.49-0.88L108.49-0.88Q103.36-0.88 102.04-6.98L102.04-6.98Q101.65-8.69 101.6-10.74L101.6-10.74 107.46-10.64Q113.42-10.55 115.13-11.77L115.13-11.77Q116.45-12.74 116.45-14.55L116.45-14.55Q116.45-17.87 113.08-19.82L113.08-19.82Q110.68-21.24 107.56-21.24L107.56-21.24Q101.45-21.24 98.82-16.16L98.82-16.16Q97.45-13.53 97.45-10.21L97.45-10.21Q97.45-4.15 101.8-1.22L101.8-1.22Q104.38 0.49 107.7 0.49L107.7 0.49Q112.98 0.49 115.47-3.32L115.47-3.32Q115.86-4 116.15-4.69ZM130.55-1.22L130.55-1.22 127.04-1.22 127.04-10.94Q127.04-15.38 129.77-18.07L129.77-18.07Q130.85-19.09 131.58-19.14L131.58-19.14Q132.41-19.14 133.09-17.92L133.09-17.92Q133.87-16.55 134.56-16.36L134.56-16.36Q134.85-16.26 135.14-16.26L135.14-16.26Q136.61-16.26 137-17.68L137-17.68Q137.1-17.97 137.1-18.26L137.1-18.26Q137.1-20.46 134.85-20.95L134.85-20.95Q134.36-21.04 133.92-21.04L133.92-21.04Q130.99-21.04 128.7-18.55L128.7-18.55Q127.62-17.38 126.99-15.92L126.99-15.92 126.79-20.75 119.71-20.75 119.71-19.53 123.38-19.53 123.38-4.15Q123.38-1.9 122.11-1.46L122.11-1.46Q121.37-1.22 119.71-1.22L119.71-1.22 119.71 0 131.77 0Q131.77-1.07 131.04-1.17L131.04-1.17Q130.85-1.22 130.55-1.22Z" opacity="1" transform="matrix(1,0,0,1,0,0)" fill="#0d6efd" class="wordmark-text-0" data-fill-palette-color="primary" id="text-0"></path></svg></g></svg></g><g transform="matrix(1,0,0,1,0,116.36106544652002)"><svg viewBox="0 0 395.52 44.952823515634144" height="44.952823515634144" width="395.52"><g transform="matrix(1,0,0,1,0,0)"><svg width="395.52" viewBox="1.44 -36.74 416.94 47.38000000000001" height="44.952823515634144" data-palette-color="#0d6efd"><path d="M15.75 0L11.74 0 11.74-30.44 1.44-30.44 1.44-33.84 26.07-33.84 26.07-30.44 15.75-30.44 15.75 0ZM37.55 0.61L37.55 0.61Q34.42 0.61 32.32-1.21 30.22-3.03 30.22-6.42L30.22-6.42Q30.22-10.52 33.95-12.72 37.67-14.92 45.7-15.82L45.7-15.82Q45.7-17.48 45.25-18.97 44.8-20.46 43.66-21.41 42.53-22.36 40.43-22.36L40.43-22.36Q38.21-22.36 36.27-21.51 34.33-20.65 32.86-19.73L32.86-19.73 31.32-22.36Q32.98-23.51 35.51-24.56 38.04-25.61 41.06-25.61L41.06-25.61Q45.63-25.61 47.64-22.8 49.66-20 49.66-15.41L49.66-15.41 49.66 0 46.36 0 46.04-3.03 45.9-3.03Q44.09-1.54 41.98-0.46 39.87 0.61 37.55 0.61ZM38.62-2.56L38.62-2.56Q40.5-2.56 42.15-3.44 43.8-4.32 45.7-5.96L45.7-5.96 45.7-13.18Q41.38-12.65 38.84-11.77 36.3-10.89 35.21-9.64 34.11-8.4 34.11-6.74L34.11-6.74Q34.11-4.52 35.42-3.54 36.74-2.56 38.62-2.56ZM64.14 0.61L64.14 0.61Q61.35 0.61 58.96-0.33 56.57-1.27 54.86-2.93L54.86-2.93 56.71-5.25Q58.3-3.93 60.1-3.2 61.89-2.47 64.28-2.47L64.28-2.47Q66.8-2.47 68.07-3.67 69.34-4.88 69.34-6.54L69.34-6.54Q69.34-7.86 68.51-8.73 67.68-9.59 66.37-10.21 65.06-10.82 63.62-11.33L63.62-11.33Q61.77-12.01 60.08-12.92 58.4-13.82 57.32-15.19 56.25-16.55 56.25-18.6L56.25-18.6Q56.25-21.53 58.47-23.57 60.69-25.61 64.75-25.61L64.75-25.61Q67.07-25.61 69.03-24.82 71-24.02 72.44-22.83L72.44-22.83 70.63-20.51Q69.31-21.46 67.91-21.98 66.5-22.51 64.79-22.51L64.79-22.51Q62.33-22.51 61.19-21.37 60.06-20.24 60.06-18.8L60.06-18.8Q60.06-17.02 61.57-16.11 63.09-15.21 65.36-14.36L65.36-14.36Q67.33-13.67 69.12-12.78 70.9-11.89 72.02-10.47 73.14-9.06 73.14-6.74L73.14-6.74Q73.14-3.71 70.83-1.55 68.51 0.61 64.14 0.61ZM83.03 0L79.13 0 79.13-36.74 83.03-36.74 83.03-11.57 83.18-11.57 94.07-24.98 98.49-24.98 90.14-14.94 99.63 0 95.31 0 87.89-12.21 83.03-6.64 83.03 0ZM110.86 0.61L110.86 0.61Q108.08 0.61 105.69-0.33 103.3-1.27 101.59-2.93L101.59-2.93 103.44-5.25Q105.03-3.93 106.82-3.2 108.62-2.47 111.01-2.47L111.01-2.47Q113.53-2.47 114.79-3.67 116.06-4.88 116.06-6.54L116.06-6.54Q116.06-7.86 115.23-8.73 114.4-9.59 113.1-10.21 111.79-10.82 110.35-11.33L110.35-11.33Q108.5-12.01 106.81-12.92 105.13-13.82 104.05-15.19 102.98-16.55 102.98-18.6L102.98-18.6Q102.98-21.53 105.2-23.57 107.42-25.61 111.47-25.61L111.47-25.61Q113.79-25.61 115.76-24.82 117.72-24.02 119.17-22.83L119.17-22.83 117.36-20.51Q116.04-21.46 114.64-21.98 113.23-22.51 111.52-22.51L111.52-22.51Q109.06-22.51 107.92-21.37 106.79-20.24 106.79-18.8L106.79-18.8Q106.79-17.02 108.3-16.11 109.81-15.21 112.08-14.36L112.08-14.36Q114.06-13.67 115.84-12.78 117.63-11.89 118.75-10.47 119.87-9.06 119.87-6.74L119.87-6.74Q119.87-3.71 117.55-1.55 115.23 0.61 110.86 0.61ZM145.97 0L142.38 0 142.38-33.84 147.27-33.84 153.86-15.5Q154.49-13.72 155.09-11.95 155.69-10.18 156.3-8.4L156.3-8.4 156.49-8.4Q157.13-10.18 157.69-11.95 158.25-13.72 158.86-15.5L158.86-15.5 165.36-33.84 170.31-33.84 170.31 0 166.55 0 166.55-19.17Q166.55-21.36 166.72-24.24 166.89-27.12 167.07-29.37L167.07-29.37 166.85-29.37 164.18-21.39 157.69-3.44 154.91-3.44 148.41-21.39 145.73-29.37 145.51-29.37Q145.68-27.12 145.83-24.24 145.97-21.36 145.97-19.17L145.97-19.17 145.97 0ZM185.03 0.61L185.03 0.61Q181.91 0.61 179.81-1.21 177.71-3.03 177.71-6.42L177.71-6.42Q177.71-10.52 181.43-12.72 185.16-14.92 193.19-15.82L193.19-15.82Q193.19-17.48 192.74-18.97 192.29-20.46 191.15-21.41 190.01-22.36 187.92-22.36L187.92-22.36Q185.69-22.36 183.75-21.51 181.81-20.65 180.35-19.73L180.35-19.73 178.81-22.36Q180.47-23.51 183-24.56 185.52-25.61 188.55-25.61L188.55-25.61Q193.12-25.61 195.13-22.8 197.14-20 197.14-15.41L197.14-15.41 197.14 0 193.85 0 193.53-3.03 193.38-3.03Q191.58-1.54 189.47-0.46 187.35 0.61 185.03 0.61ZM186.11-2.56L186.11-2.56Q187.99-2.56 189.64-3.44 191.28-4.32 193.19-5.96L193.19-5.96 193.19-13.18Q188.87-12.65 186.33-11.77 183.79-10.89 182.69-9.64 181.59-8.4 181.59-6.74L181.59-6.74Q181.59-4.52 182.91-3.54 184.23-2.56 186.11-2.56ZM213.62 0.61L213.62 0.61Q208.96 0.61 206.14-2.8 203.32-6.2 203.32-12.45L203.32-12.45Q203.32-16.5 204.85-19.46 206.37-22.41 208.85-24.01 211.33-25.61 214.18-25.61L214.18-25.61Q216.36-25.61 217.98-24.84 219.6-24.07 221.24-22.71L221.24-22.71 221.09-27 221.09-36.74 225.07-36.74 225.07 0 221.78 0 221.46-2.98 221.31-2.98Q219.82-1.51 217.87-0.45 215.92 0.61 213.62 0.61ZM214.5-2.71L214.5-2.71Q216.28-2.71 217.87-3.58 219.46-4.44 221.09-6.23L221.09-6.23 221.09-19.58Q219.43-21.04 217.92-21.68 216.41-22.31 214.82-22.31L214.82-22.31Q212.74-22.31 211.07-21.07 209.4-19.82 208.4-17.6 207.4-15.38 207.4-12.45L207.4-12.45Q207.4-7.89 209.25-5.3 211.11-2.71 214.5-2.71ZM243.65 0.61L243.65 0.61Q240.36 0.61 237.66-0.95 234.96-2.51 233.36-5.44 231.76-8.37 231.76-12.45L231.76-12.45Q231.76-16.53 233.36-19.48 234.96-22.44 237.52-24.02 240.09-25.61 242.94-25.61L242.94-25.61Q247.66-25.61 250.24-22.46 252.83-19.31 252.83-13.89L252.83-13.89Q252.83-12.52 252.69-11.57L252.69-11.57 235.67-11.57Q235.86-7.5 238.16-5 240.45-2.51 244.12-2.51L244.12-2.51Q246-2.51 247.56-3.02 249.12-3.52 250.46-4.42L250.46-4.42 251.86-1.95Q250.22-0.83 248.24-0.11 246.26 0.61 243.65 0.61ZM235.62-14.43L235.62-14.43 249.34-14.43Q249.34-18.36 247.68-20.41 246.02-22.46 242.99-22.46L242.99-22.46Q240.28-22.46 238.15-20.36 236.01-18.26 235.62-14.43ZM284.86 0.61L284.86 0.61Q281.23 0.61 278.25-0.74 275.27-2.1 273.1-4.42L273.1-4.42 275.37-7.1Q277.17-5.13 279.69-4.03 282.2-2.93 284.91-2.93L284.91-2.93Q288.35-2.93 290.28-4.49 292.21-6.05 292.21-8.59L292.21-8.59Q292.21-10.4 291.46-11.49 290.7-12.57 289.4-13.29 288.11-14.01 286.5-14.72L286.5-14.72 281.62-16.89Q280.05-17.58 278.47-18.65 276.88-19.73 275.82-21.41 274.76-23.1 274.76-25.56L274.76-25.56Q274.76-28.15 276.12-30.15 277.49-32.15 279.87-33.31 282.25-34.47 285.25-34.47L285.25-34.47Q288.35-34.47 290.89-33.3 293.43-32.13 295.17-30.4L295.17-30.4 292.94-27.71Q291.41-29.17 289.45-30.04 287.5-30.91 285.25-30.91L285.25-30.91Q282.37-30.91 280.6-29.52 278.83-28.13 278.83-25.81L278.83-25.81Q278.83-24.15 279.69-23.07 280.54-22 281.84-21.3 283.13-20.61 284.45-20.04L284.45-20.04 289.28-17.97Q291.26-17.14 292.85-15.99 294.43-14.84 295.36-13.15 296.29-11.45 296.29-8.91L296.29-8.91Q296.29-6.25 294.9-4.09 293.51-1.93 290.95-0.66 288.4 0.61 284.86 0.61ZM306.54 0L302.59 0 302.59-24.98 306.54-24.98 306.54 0ZM304.64-30.25L304.64-30.25Q303.44-30.25 302.71-30.99 301.98-31.74 301.98-32.98L301.98-32.98Q301.98-34.13 302.71-34.86 303.44-35.6 304.64-35.6L304.64-35.6Q305.83-35.6 306.57-34.86 307.3-34.13 307.3-32.98L307.3-32.98Q307.3-31.74 306.57-30.99 305.83-30.25 304.64-30.25ZM319.12 0L315.16 0 315.16-24.98 318.46-24.98 318.82-21.31 318.92-21.31Q320.58-23.14 322.55-24.38 324.51-25.61 326.76-25.61L326.76-25.61Q329.61-25.61 331.24-24.32 332.86-23.02 333.59-20.8L333.59-20.8Q335.57-22.92 337.62-24.27 339.67-25.61 341.89-25.61L341.89-25.61Q345.73-25.61 347.61-23.13 349.49-20.65 349.49-15.87L349.49-15.87 349.49 0 345.56 0 345.56-15.36Q345.56-18.92 344.38-20.56 343.21-22.19 340.77-22.19L340.77-22.19Q337.89-22.19 334.33-18.19L334.33-18.19 334.33 0 330.35 0 330.35-15.36Q330.35-18.92 329.19-20.56 328.03-22.19 325.56-22.19L325.56-22.19Q322.68-22.19 319.12-18.19L319.12-18.19 319.12 0ZM361.67 10.64L357.71 10.64 357.71-24.98 361.01-24.98 361.38-22.09 361.47-22.09Q363.18-23.49 365.27-24.55 367.36-25.61 369.51-25.61L369.51-25.61Q374.39-25.61 376.93-22.14 379.47-18.68 379.47-12.87L379.47-12.87Q379.47-8.62 377.95-5.6 376.44-2.59 373.96-0.99 371.48 0.61 368.58 0.61L368.58 0.61Q366.87 0.61 365.11-0.15 363.35-0.9 361.57-2.29L361.57-2.29 361.67 2.1 361.67 10.64ZM367.97-2.71L367.97-2.71Q371.17-2.71 373.28-5.43 375.39-8.15 375.39-12.82L375.39-12.82Q375.39-17.04 373.8-19.68 372.22-22.31 368.58-22.31L368.58-22.31Q366.94-22.31 365.26-21.4 363.57-20.48 361.67-18.75L361.67-18.75 361.67-5.4Q363.45-3.93 365.08-3.32 366.7-2.71 367.97-2.71ZM390.48 0.61L390.48 0.61Q388.23 0.61 387.22-0.77 386.21-2.15 386.21-4.79L386.21-4.79 386.21-36.74 390.16-36.74 390.16-4.47Q390.16-3.47 390.53-3.06 390.89-2.66 391.41-2.66L391.41-2.66Q391.6-2.66 391.78-2.67 391.97-2.69 392.29-2.76L392.29-2.76 392.8 0.2Q392.38 0.37 391.8 0.49 391.21 0.61 390.48 0.61ZM409.2 0.61L409.2 0.61Q405.91 0.61 403.21-0.95 400.51-2.51 398.91-5.44 397.31-8.37 397.31-12.45L397.31-12.45Q397.31-16.53 398.91-19.48 400.51-22.44 403.08-24.02 405.64-25.61 408.5-25.61L408.5-25.61Q413.21-25.61 415.8-22.46 418.38-19.31 418.38-13.89L418.38-13.89Q418.38-12.52 418.24-11.57L418.24-11.57 401.22-11.57Q401.42-7.5 403.71-5 406.01-2.51 409.67-2.51L409.67-2.51Q411.55-2.51 413.11-3.02 414.67-3.52 416.02-4.42L416.02-4.42 417.41-1.95Q415.77-0.83 413.79-0.11 411.82 0.61 409.2 0.61ZM401.17-14.43L401.17-14.43 414.89-14.43Q414.89-18.36 413.23-20.41 411.57-22.46 408.54-22.46L408.54-22.46Q405.83-22.46 403.7-20.36 401.56-18.26 401.17-14.43Z" opacity="1" transform="matrix(1,0,0,1,0,0)" fill="#0d6efd" class="slogan-text-1" data-fill-palette-color="secondary" id="text-1"></path></svg></g></svg></g></svg></g></svg></g><g transform="matrix(1,0,0,1,76.53311999999997,0)"><svg viewBox="0 0 244.43135999999998 186.5716333947555" height="186.5716333947555" width="244.43135999999998"><g><svg xmlns="http://www.w3.org/2000/svg" xmlns:xlink="http://www.w3.org/1999/xlink" version="1.1" x="0" y="0" viewBox="1.32 12.844 97.359 74.313" enable-background="new 0 0 100 100" xml:space="preserve" height="186.5716333947555" width="244.43135999999998" class="icon-icon-0" data-fill-palette-color="accent" id="icon-0"><path fill="#0d6efd" d="M49.951 87.075c0.212-0.248 0.117-0.575-0.033-0.841C50.075 86.505 50.178 86.833 49.951 87.075z" data-fill-palette-color="accent"></path><path fill="#0d6efd" d="M64.521 86.734c-0.15 0.17-0.451 0.289-0.98 0.33-0.09 0.01-0.221 0.01-0.38 0.021-0.41 0.011-1.04 0.021-1.841 0.04-0.439 0-0.92 0-1.449 0.011-0.811 0-1.92 0-3.229 0.01-1.933 0.011-4.07 0.011-6.19 0.011-3.66 0-7.23-0.011-9.46-0.021-0.62 0-1.13-0.011-1.52-0.011-1.29-0.012-2.27-0.029-2.77-0.051-0.07 0-0.15 0-0.23-0.01-0.09-0.011-0.17-0.021-0.24-0.031-1.73-0.238-0.36-1.618-0.36-1.618s2.1-1.642 3.14-3.279c0 0 0.31-0.011 0.6-2.54 0.4-3.58 0.75-6.359 0.75-6.359h19.291c0 0 0.341 2.779 0.75 6.359 0.279 2.529 0.591 2.54 0.591 2.54 0.979 1.54 2.88 3.08 3.118 3.271 0.012 0 0.021 0.011 0.021 0.011s0.07 0.069 0.16 0.188C64.51 85.873 64.819 86.384 64.521 86.734z" data-fill-palette-color="accent"></path><path fill="#0d6efd" d="M49.901 85.83c0.064 0.078 0.135 0.179 0.197 0.289C50.036 86.011 49.965 85.91 49.901 85.83z" data-fill-palette-color="accent"></path><path fill="#0d6efd" d="M50.129 71.937c-3.169 0.013-44.547 0.144-46.563 0C1.471 71.79 1.32 69.691 1.32 69.691V14.744c0-1.797 2.245-1.9 2.245-1.9h46.116 0.639 46.113c0 0 2.246 0.103 2.246 1.9v54.948c0 0-0.15 2.099-2.246 2.245C94.463 72.078 54.797 71.951 50.129 71.937M94.898 16.541H5.213v50.756h89.686V16.541L94.898 16.541z" data-fill-palette-color="accent"></path></svg></g></svg></g><g></g></svg></g><defs></defs></svg><rect width="233.7201498528498" height="247.2" fill="none" stroke="none" visibility="hidden"></rect></g></svg></g></svg>